<svg width="135" height="78" viewBox="0 0 135 78" fill="none" xmlns="http://www.w3.org/2000/svg">
<path d="M0 73.2599C0.375069 75.7631 2.78622 78 6.40296 78C11.3592 78 13.3149 74.7245 13.3149 71.1294V59.4388H9.88574V60.9834C9.4303 60.1046 8.22472 59.1991 6.13505 59.1991C2.51832 59.1991 0 62.1285 0 65.5904C0 69.2653 2.62548 71.955 6.13505 71.955C8.03718 71.955 9.26955 71.1294 9.80537 70.2773V71.236C9.80537 73.7658 8.54621 74.8843 6.29579 74.8843C4.60799 74.8843 3.45599 73.8457 3.21487 72.4077L0 73.2599ZM6.75124 68.9191C4.90268 68.9191 3.58994 67.6409 3.58994 65.5904C3.58994 63.5665 4.98306 62.2882 6.75124 62.2882C8.46584 62.2882 9.85895 63.5665 9.85895 65.5904C9.85895 67.6143 8.573 68.9191 6.75124 68.9191Z" fill="black"/>
<path d="M20.5086 59.4388H16.9455V72.5408H20.5086V61.8355C20.589 63.0605 21.607 63.9926 22.893 63.9926C24.2325 63.9926 25.2774 62.954 25.2774 61.6225C25.2774 60.291 24.2325 59.2524 22.893 59.2524C21.607 59.2524 20.589 60.2111 20.5086 61.4627V59.4388Z" fill="black"/>
<path d="M26.6336 68.9724C26.6336 71.0229 28.3482 72.9137 31.1613 72.9137C33.117 72.9137 34.3761 72.0082 35.0459 70.9697C35.0459 71.4756 35.0995 72.1947 35.1798 72.5408H38.4483C38.3679 72.0881 38.2876 71.1561 38.2876 70.4637V64.0192C38.2876 61.3828 36.7337 59.0394 32.5544 59.0394C29.018 59.0394 27.1159 61.3029 26.9015 63.3534L30.0628 64.0192C30.17 62.8741 31.0273 61.8888 32.5812 61.8888C34.0814 61.8888 34.8048 62.6611 34.8048 63.5931C34.8048 64.0458 34.5637 64.4186 33.8135 64.5252L30.5719 65.0045C28.375 65.3241 26.6336 66.629 26.6336 68.9724ZM31.9114 70.2773C30.7594 70.2773 30.1968 69.5316 30.1968 68.7594C30.1968 67.7474 30.9201 67.2414 31.831 67.1083L34.8048 66.6556V67.2414C34.8048 69.5583 33.4117 70.2773 31.9114 70.2773Z" fill="black"/>
<path d="M45.3894 65.0045C45.3894 63.4866 46.3002 62.2882 47.8541 62.2882C49.5687 62.2882 50.2921 63.4333 50.2921 64.898V72.5408H53.8552V64.2855C53.8552 61.4094 52.3549 59.0926 49.0865 59.0926C47.6666 59.0926 46.0859 59.7051 45.2822 61.0632V59.4388H41.8262V72.5408H45.3894V65.0045Z" fill="black"/>
<path d="M62.0016 55.5242H58.7868V57.3617C58.7868 58.5334 58.1438 59.4388 56.7507 59.4388H56.0809V62.5812H58.4653V68.6795C58.4653 71.2093 60.0727 72.7273 62.6446 72.7273C63.6895 72.7273 64.3324 72.5408 64.6539 72.4077V69.4784C64.4664 69.5316 63.9841 69.5849 63.5555 69.5849C62.5375 69.5849 62.0016 69.2121 62.0016 68.067V62.5812H64.6539V59.4388H62.0016V55.5242Z" fill="black"/>
<path d="M66.6339 68.8925C66.7947 70.3838 68.161 72.9403 72.126 72.9403C75.582 72.9403 77.243 70.7566 77.243 68.6262C77.243 66.7088 75.9303 65.1377 73.3316 64.6051L71.4562 64.2056C70.7329 64.0725 70.2506 63.673 70.2506 63.0339C70.2506 62.2882 71.0008 61.729 71.9384 61.729C73.4387 61.729 74.0013 62.7143 74.1085 63.4866L77.0822 62.8208C76.9215 61.4094 75.6623 59.0394 71.9117 59.0394C69.0719 59.0394 66.9822 60.9834 66.9822 63.3268C66.9822 65.1643 68.1342 66.6822 70.6793 67.2414L72.4207 67.6409C73.4387 67.8539 73.8406 68.3333 73.8406 68.9191C73.8406 69.6115 73.278 70.224 72.0992 70.224C70.5453 70.224 69.7684 69.2653 69.688 68.2268L66.6339 68.8925Z" fill="black"/>
<path fill-rule="evenodd" clip-rule="evenodd" d="M104.375 5.48413C104.375 5.23967 104.175 5.0415 103.929 5.0415C103.683 5.0415 103.484 5.23967 103.484 5.48413V5.51214C103.484 5.75659 103.683 5.95476 103.929 5.95476C104.175 5.95476 104.375 5.75659 104.375 5.51214V5.48413ZM104.375 9.99453C104.375 9.75008 104.175 9.55191 103.929 9.55191C103.683 9.55191 103.484 9.75008 103.484 9.99453V10.0506C103.484 10.295 103.683 10.4932 103.929 10.4932C104.175 10.4932 104.375 10.295 104.375 10.0506V9.99453ZM104.375 14.533C104.375 14.2885 104.175 14.0903 103.929 14.0903C103.683 14.0903 103.484 14.2885 103.484 14.533V14.589C103.484 14.8334 103.683 15.0316 103.929 15.0316C104.175 15.0316 104.375 14.8334 104.375 14.589V14.533ZM104.375 19.0714C104.375 18.8269 104.175 18.6288 103.929 18.6288C103.683 18.6288 103.484 18.8269 103.484 19.0714V19.0994C103.484 19.3438 103.683 19.542 103.929 19.542C104.175 19.542 104.375 19.3438 104.375 19.0994V19.0714ZM104.375 41.4628C104.375 41.2184 104.175 41.0202 103.929 41.0202C103.683 41.0202 103.484 41.2184 103.484 41.4628V41.4927C103.484 41.7372 103.683 41.9354 103.929 41.9354C104.175 41.9354 104.375 41.7372 104.375 41.4927V41.4628ZM104.375 46.2761C104.375 46.0317 104.175 45.8335 103.929 45.8335C103.683 45.8335 103.484 46.0317 103.484 46.2761V46.3359C103.484 46.5804 103.683 46.7786 103.929 46.7786C104.175 46.7786 104.375 46.5804 104.375 46.3359V46.2761ZM104.375 51.1193C104.375 50.8749 104.175 50.6767 103.929 50.6767C103.683 50.6767 103.484 50.8749 103.484 51.1193V51.1791C103.484 51.4236 103.683 51.6218 103.929 51.6218C104.175 51.6218 104.375 51.4236 104.375 51.1791V51.1193ZM104.375 55.9625C104.375 55.7181 104.175 55.5199 103.929 55.5199C103.683 55.5199 103.484 55.7181 103.484 55.9625V56.0223C103.484 56.2668 103.683 56.465 103.929 56.465C104.175 56.465 104.375 56.2668 104.375 56.0223V55.9625ZM104.375 60.8057C104.375 60.5613 104.175 60.3631 103.929 60.3631C103.683 60.3631 103.484 60.5613 103.484 60.8057V60.8356C103.484 61.0801 103.683 61.2783 103.929 61.2783C104.175 61.2783 104.375 61.0801 104.375 60.8356V60.8057ZM134.481 30.9096C134.481 31.1541 134.281 31.3522 134.035 31.3522H134.009C133.763 31.3522 133.563 31.1541 133.563 30.9096C133.563 30.6652 133.763 30.467 134.009 30.467H134.035C134.281 30.467 134.481 30.6652 134.481 30.9096ZM130.143 30.9096C130.143 31.1541 129.944 31.3522 129.698 31.3522H129.644C129.398 31.3522 129.199 31.1541 129.199 30.9096C129.199 30.6652 129.398 30.467 129.644 30.467H129.698C129.944 30.467 130.143 30.6652 130.143 30.9096ZM125.779 30.9096C125.779 31.1541 125.579 31.3522 125.333 31.3522H125.28C125.034 31.3522 124.834 31.1541 124.834 30.9096C124.834 30.6652 125.034 30.467 125.28 30.467H125.333C125.579 30.467 125.779 30.6652 125.779 30.9096ZM121.414 30.9096C121.414 31.1541 121.215 31.3522 120.969 31.3522H120.915C120.669 31.3522 120.47 31.1541 120.47 30.9096C120.47 30.6652 120.669 30.467 120.915 30.467H120.969C121.215 30.467 121.414 30.6652 121.414 30.9096ZM117.05 30.9096C117.05 31.1541 116.85 31.3522 116.604 31.3522H116.55C116.305 31.3522 116.105 31.1541 116.105 30.9096C116.105 30.6652 116.305 30.467 116.55 30.467H116.604C116.85 30.467 117.05 30.6652 117.05 30.9096ZM112.685 30.9096C112.685 31.1541 112.486 31.3522 112.24 31.3522H112.213C111.967 31.3522 111.768 31.1541 111.768 30.9096C111.768 30.6652 111.967 30.467 112.213 30.467H112.24C112.486 30.467 112.685 30.6652 112.685 30.9096ZM95.8361 31.3522C96.082 31.3522 96.2814 31.1541 96.2814 30.9096C96.2814 30.6652 96.082 30.467 95.8361 30.467H95.8089C95.563 30.467 95.3636 30.6652 95.3636 30.9096C95.3636 31.1541 95.563 31.3522 95.8089 31.3522H95.8361ZM91.4606 31.3522C91.7065 31.3522 91.9059 31.1541 91.9059 30.9096C91.9059 30.6652 91.7065 30.467 91.4606 30.467H91.4062C91.1603 30.467 90.9609 30.6652 90.9609 30.9096C90.9609 31.1541 91.1603 31.3522 91.4062 31.3522H91.4606ZM87.0579 31.3522C87.3038 31.3522 87.5032 31.1541 87.5032 30.9096C87.5032 30.6652 87.3038 30.467 87.0579 30.467H87.0036C86.7576 30.467 86.5583 30.6652 86.5583 30.9096C86.5583 31.1541 86.7576 31.3522 87.0036 31.3522H87.0579ZM82.6552 31.3522C82.9012 31.3522 83.1005 31.1541 83.1005 30.9096C83.1005 30.6652 82.9012 30.467 82.6552 30.467H82.6009C82.355 30.467 82.1556 30.6652 82.1556 30.9096C82.1556 31.1541 82.355 31.3522 82.6009 31.3522H82.6552ZM78.2526 31.3522C78.4985 31.3522 78.6979 31.1541 78.6979 30.9096C78.6979 30.6652 78.4985 30.467 78.2526 30.467H78.1982C77.9523 30.467 77.7529 30.6652 77.7529 30.9096C77.7529 31.1541 77.9523 31.3522 78.1982 31.3522H78.2526Z" fill="black" fill-opacity="0.3"/>
<path fill-rule="evenodd" clip-rule="evenodd" d="M103.899 0.540894H103.959C104.205 0.541127 104.404 0.739484 104.404 0.983937C104.403 1.22839 104.204 1.42637 103.958 1.42614H103.9C103.654 1.42637 103.455 1.22839 103.454 0.983937C103.454 0.739484 103.653 0.541127 103.899 0.540894ZM99.6904 1.27469C99.7284 1.51621 99.5622 1.74258 99.3192 1.7803L99.2622 1.7892C99.0193 1.82738 98.7912 1.66261 98.7528 1.42115C98.7144 1.1797 98.8802 0.953009 99.1231 0.914822L99.1818 0.905654C99.4247 0.867939 99.6525 1.03316 99.6904 1.27469ZM108.167 1.27469C108.205 1.03316 108.433 0.867939 108.676 0.905655L108.735 0.914823C108.978 0.953009 109.143 1.1797 109.105 1.42115C109.067 1.66261 108.839 1.82738 108.596 1.7892L108.539 1.7803C108.296 1.74258 108.129 1.51621 108.167 1.27469ZM112.777 2.2943C112.852 2.06173 113.103 1.93421 113.337 2.00948L113.394 2.02768C113.627 2.10341 113.755 2.35322 113.679 2.58565C113.603 2.81807 113.352 2.94511 113.118 2.86938L113.063 2.85171C112.829 2.77644 112.701 2.52688 112.777 2.2943ZM95.0814 2.29431C95.1571 2.52688 95.0288 2.77644 94.7948 2.85171L94.7401 2.86938C94.5062 2.94511 94.2549 2.81807 94.1788 2.58565C94.1026 2.35322 94.2304 2.10341 94.4642 2.02768L94.5206 2.00948C94.7546 1.93421 95.0056 2.06173 95.0814 2.29431ZM117.166 4.02289C117.278 3.80506 117.546 3.71841 117.765 3.82936L117.818 3.85612C118.036 3.96749 118.123 4.23418 118.011 4.45179C117.899 4.6694 117.631 4.75553 117.412 4.64416L117.361 4.61818C117.141 4.50724 117.054 4.24071 117.166 4.02289ZM90.6919 4.02289C90.8035 4.24071 90.7164 4.50724 90.4972 4.61818L90.446 4.64416C90.2271 4.75553 89.9588 4.6694 89.8468 4.45179C89.7347 4.23418 89.8214 3.96749 90.0403 3.85612L90.093 3.82936C90.3122 3.71841 90.5803 3.80506 90.6919 4.02289ZM86.6302 6.41515C86.7747 6.61294 86.7306 6.88973 86.5316 7.03339L86.4851 7.067C86.2864 7.21103 86.0079 7.16768 85.863 6.97017C85.7181 6.77266 85.7617 6.49578 85.9604 6.35174L86.0082 6.31713C86.2072 6.17347 86.4857 6.21736 86.6302 6.41515ZM121.228 6.41515C121.372 6.21736 121.651 6.17347 121.85 6.31713L121.897 6.35174C122.096 6.49578 122.14 6.77266 121.995 6.97017C121.85 7.16768 121.571 7.21103 121.373 7.067L121.326 7.03339C121.127 6.88973 121.083 6.61294 121.228 6.41515ZM82.9937 9.40829C83.1675 9.58131 83.1672 9.86156 82.9931 10.0343L82.9525 10.0747C82.7788 10.2477 82.4968 10.2479 82.3228 10.0753C82.1487 9.90257 82.1484 9.62232 82.3222 9.4493L82.364 9.40769C82.5381 9.235 82.82 9.23527 82.9937 9.40829ZM124.864 9.40829C125.038 9.23527 125.32 9.235 125.494 9.40769L125.536 9.4493C125.709 9.62232 125.709 9.90257 125.535 10.0753C125.361 10.2479 125.079 10.2477 124.905 10.0747L124.865 10.0343C124.691 9.86156 124.69 9.58131 124.864 9.40829ZM79.87 12.9273C80.0687 13.0713 80.1123 13.3482 79.9674 13.5457L79.9336 13.5919C79.789 13.7897 79.5106 13.8336 79.3116 13.6899C79.1126 13.5463 79.0685 13.2695 79.213 13.0717L79.2478 13.0241C79.3927 12.8266 79.6713 12.7833 79.87 12.9273ZM127.988 12.9273C128.187 12.7833 128.465 12.8266 128.61 13.0241L128.645 13.0717C128.789 13.2695 128.745 13.5463 128.546 13.6899C128.347 13.8336 128.069 13.7897 127.924 13.5919L127.89 13.5457C127.746 13.3482 127.789 13.0713 127.988 12.9273ZM130.521 16.8872C130.74 16.7759 131.009 16.862 131.121 17.0796L131.148 17.132C131.259 17.3499 131.172 17.6164 130.953 17.7273C130.734 17.8383 130.466 17.7516 130.354 17.5338L130.328 17.4829C130.216 17.2653 130.303 16.9986 130.521 16.8872ZM132.399 21.1933C132.633 21.1175 132.884 21.2446 132.96 21.477L132.978 21.5331C133.054 21.7656 132.926 22.0152 132.692 22.0905C132.458 22.1657 132.207 22.0382 132.131 21.8056L132.113 21.7512C132.037 21.5188 132.165 21.269 132.399 21.1933ZM133.57 25.7399C133.813 25.7018 134.041 25.8665 134.08 26.108L134.089 26.1663C134.127 26.4078 133.961 26.6342 133.718 26.6719C133.475 26.7096 133.247 26.5444 133.209 26.3029L133.2 26.2463C133.162 26.0048 133.327 25.7781 133.57 25.7399ZM134.01 30.4133C134.256 30.413 134.456 30.611 134.456 30.8555V30.9146C134.456 31.1591 134.256 31.3571 134.01 31.3568C133.764 31.3566 133.565 31.1582 133.565 30.9138V30.8563C133.565 30.6119 133.764 30.4135 134.01 30.4133ZM133.718 35.0982C133.961 35.1359 134.127 35.3623 134.089 35.6038L134.08 35.6621C134.041 35.9036 133.813 36.0684 133.57 36.0302C133.327 35.992 133.162 35.7653 133.2 35.5238L133.209 35.4672C133.247 35.2257 133.475 35.0605 133.718 35.0982ZM132.692 39.6796C132.926 39.7549 133.054 40.0045 132.978 40.237L132.96 40.2931C132.884 40.5255 132.633 40.6526 132.399 40.5768C132.165 40.5011 132.037 40.2513 132.113 40.0189L132.131 39.9645C132.207 39.7319 132.458 39.6044 132.692 39.6796ZM76.9049 44.0428C77.1241 43.9318 77.3922 44.0185 77.5038 44.2363L77.5299 44.2872C77.642 44.5048 77.5553 44.7715 77.3364 44.8829C77.1175 44.9942 76.8492 44.9081 76.7371 44.6905L76.7102 44.6381C76.5986 44.4202 76.6858 44.1537 76.9049 44.0428ZM130.953 44.0428C131.172 44.1537 131.259 44.4202 131.148 44.6381L131.121 44.6905C131.009 44.9081 130.74 44.9942 130.521 44.8829C130.303 44.7715 130.216 44.5048 130.328 44.2872L130.354 44.2363C130.466 44.0185 130.734 43.9318 130.953 44.0428ZM79.3116 48.0802C79.5106 47.9365 79.789 47.9804 79.9335 48.1782L79.9674 48.2244C80.1123 48.4219 80.0687 48.6988 79.87 48.8428C79.6713 48.9868 79.3927 48.9435 79.2478 48.746L79.213 48.6984C79.0685 48.5006 79.1126 48.2238 79.3116 48.0802ZM128.546 48.0802C128.745 48.2238 128.789 48.5006 128.645 48.6984L128.61 48.746C128.465 48.9435 128.187 48.9868 127.988 48.8428C127.789 48.6988 127.746 48.4219 127.89 48.2244L127.924 48.1782C128.069 47.9804 128.347 47.9365 128.546 48.0802ZM82.3228 51.6948C82.4968 51.5222 82.7788 51.5224 82.9525 51.6954L82.9931 51.7359C83.1672 51.9085 83.1675 52.1888 82.9937 52.3618C82.82 52.5348 82.5381 52.5351 82.364 52.3624L82.3222 52.3208C82.1484 52.1478 82.1487 51.8675 82.3228 51.6948ZM125.535 51.6948C125.709 51.8675 125.709 52.1478 125.536 52.3208L125.494 52.3624C125.32 52.5351 125.038 52.5348 124.864 52.3618C124.69 52.1888 124.691 51.9085 124.865 51.7359L124.905 51.6954C125.079 51.5224 125.361 51.5222 125.535 51.6948ZM85.863 54.7999C86.0079 54.6024 86.2864 54.5591 86.4851 54.7031L86.5316 54.7367C86.7306 54.8804 86.7747 55.1572 86.6302 55.355C86.4857 55.5527 86.2072 55.5966 86.0082 55.453L85.9604 55.4184C85.7617 55.2743 85.7181 54.9974 85.863 54.7999ZM121.995 54.7999C122.14 54.9974 122.096 55.2743 121.897 55.4184L121.85 55.453C121.651 55.5966 121.372 55.5527 121.228 55.355C121.083 55.1572 121.127 54.8804 121.326 54.7367L121.373 54.7031C121.571 54.5591 121.85 54.6024 121.995 54.7999ZM89.8468 57.3183C89.9588 57.1007 90.2271 57.0146 90.446 57.1259L90.4972 57.1519C90.7164 57.2629 90.8035 57.5294 90.6919 57.7472C90.5803 57.965 90.3122 58.0517 90.093 57.9407L90.0403 57.914C89.8214 57.8026 89.7347 57.5359 89.8468 57.3183ZM118.011 57.3183C118.123 57.5359 118.036 57.8026 117.818 57.914L117.765 57.9407C117.546 58.0517 117.278 57.965 117.166 57.7472C117.054 57.5294 117.141 57.2629 117.361 57.1519L117.412 57.1259C117.631 57.0146 117.899 57.1007 118.011 57.3183ZM94.1788 59.1845C94.2549 58.952 94.5062 58.825 94.7401 58.9007L94.7948 58.9184C95.0288 58.9937 95.1571 59.2432 95.0814 59.4758C95.0056 59.7084 94.7546 59.8359 94.5206 59.7606L94.4642 59.7424C94.2304 59.6667 94.1026 59.4169 94.1788 59.1845ZM113.679 59.1845C113.755 59.4169 113.627 59.6667 113.394 59.7424L113.337 59.7606C113.103 59.8359 112.852 59.7084 112.777 59.4758C112.701 59.2432 112.829 58.9937 113.063 58.9184L113.118 58.9007C113.352 58.825 113.603 58.952 113.679 59.1845ZM98.7528 60.3489C98.7912 60.1075 99.0193 59.9427 99.2622 59.9809L99.3192 59.9898C99.5622 60.0275 99.7284 60.2539 99.6904 60.4954C99.6525 60.7369 99.4247 60.9022 99.1818 60.8644L99.1231 60.8553C98.8802 60.8171 98.7144 60.5904 98.7528 60.3489ZM109.105 60.3489C109.143 60.5904 108.978 60.8171 108.735 60.8553L108.676 60.8644C108.433 60.9022 108.205 60.7369 108.167 60.4954C108.129 60.2539 108.296 60.0275 108.539 59.9898L108.596 59.9809C108.839 59.9427 109.067 60.1075 109.105 60.3489ZM103.454 60.7862C103.455 60.5417 103.654 60.3437 103.9 60.344H103.958C104.204 60.3437 104.403 60.5417 104.404 60.7862C104.404 61.0306 104.205 61.229 103.959 61.2292H103.899C103.653 61.229 103.454 61.0306 103.454 60.7862Z" fill="black"/>
<path d="M104.918 0.983559C104.918 1.52679 104.475 1.96716 103.929 1.96716C103.382 1.96716 102.939 1.52679 102.939 0.983559C102.939 0.44033 103.382 -4.45985e-05 103.929 -4.45511e-05C104.475 -4.45036e-05 104.918 0.44033 104.918 0.983559Z" fill="black"/>
<path d="M104.918 60.7866C104.918 61.3298 104.475 61.7702 103.929 61.7702C103.382 61.7702 102.939 61.3298 102.939 60.7866C102.939 60.2434 103.382 59.803 103.929 59.803C104.475 59.803 104.918 60.2434 104.918 60.7866Z" fill="black"/>
<path d="M134.011 31.8687C133.464 31.8687 133.021 31.4283 133.021 30.8851C133.021 30.3419 133.464 29.9015 134.011 29.9015C134.557 29.9015 135 30.3419 135 30.8851C135 31.4283 134.557 31.8687 134.011 31.8687Z" fill="black"/>
<path fill-rule="evenodd" clip-rule="evenodd" d="M112.572 12.4478H120.779L94.3569 49.2317H86.2866L112.572 12.4478ZM102.932 23.2868L95.1976 12.4478H86.9592L98.8965 29.199L102.932 23.2868ZM100.908 23.3077L98.867 26.2988L90.174 14.1003H94.3386L100.908 23.3077ZM89.5066 47.5792H93.5012L117.549 14.1003H113.431L89.5066 47.5792Z" fill="black"/>
<path fill-rule="evenodd" clip-rule="evenodd" d="M114.226 47.4635C114.32 47.5933 114.47 47.6701 114.631 47.6701H118.366L109.411 35.0301C109.212 34.7484 108.793 34.7489 108.595 35.0313L107.136 37.103C107.013 37.2777 107.014 37.5113 107.14 37.6843L114.226 47.4635ZM104.891 37.4087L113.524 49.3226H121.57L108.998 31.5768L104.891 37.4087Z" fill="black"/>
<path fill-rule="evenodd" clip-rule="evenodd" d="M28.217 12.4478H21.1634V23.3929C19.1262 22.3097 16.7874 21.6937 14.3003 21.6937C6.4038 21.6937 0.00244141 27.903 0.00244141 35.5625C0.00244141 43.222 6.4038 49.4313 14.3003 49.4313C16.7874 49.4313 19.1262 48.8153 21.1634 47.7321V49.1011H28.217V12.4478ZM22.3229 35.4894C22.3229 39.8276 18.6973 43.3443 14.225 43.3443C9.75262 43.3443 6.12708 39.8276 6.12708 35.4894C6.12708 31.1513 9.75262 27.6345 14.225 27.6345C18.6973 27.6345 22.3229 31.1513 22.3229 35.4894ZM56.7975 12.4478L30.5683 49.1011H38.7912L64.995 12.4478H56.7975ZM77.2567 12.4478H84.3104V49.1011H77.2567V47.7321C75.2196 48.8153 72.8807 49.4313 70.3936 49.4313C62.4971 49.4313 56.0958 43.222 56.0958 35.5625C56.0958 27.903 62.4971 21.6937 70.3936 21.6937C72.8807 21.6937 75.2196 22.3097 77.2567 23.3929V12.4478ZM70.3183 43.3443C74.7907 43.3443 78.4162 39.8276 78.4162 35.4894C78.4162 31.1513 74.7907 27.6345 70.3183 27.6345C65.846 27.6345 62.2204 31.1513 62.2204 35.4894C62.2204 39.8276 65.846 43.3443 70.3183 43.3443ZM47.0269 23.5756L38.7976 12.4478H30.2325L42.4924 29.7941L47.0269 23.5756Z" fill="black"/>
</svg>
