<svg width="135" height="78" viewBox="0 0 135 78" fill="none" xmlns="http://www.w3.org/2000/svg">
<path d="M0 73.2599C0.375069 75.7631 2.78622 78 6.40296 78C11.3592 78 13.3149 74.7245 13.3149 71.1294V59.4388H9.88574V60.9834C9.4303 60.1046 8.22472 59.1991 6.13505 59.1991C2.51832 59.1991 0 62.1285 0 65.5904C0 69.2653 2.62548 71.955 6.13505 71.955C8.03718 71.955 9.26955 71.1294 9.80537 70.2773V71.236C9.80537 73.7658 8.54621 74.8843 6.29579 74.8843C4.60799 74.8843 3.45599 73.8457 3.21487 72.4077L0 73.2599ZM6.75124 68.9191C4.90268 68.9191 3.58994 67.6409 3.58994 65.5904C3.58994 63.5665 4.98306 62.2882 6.75124 62.2882C8.46584 62.2882 9.85895 63.5665 9.85895 65.5904C9.85895 67.6143 8.573 68.9191 6.75124 68.9191Z" fill="#6966FF"/>
<path d="M20.5086 59.4388H16.9455V72.5408H20.5086V61.8355C20.589 63.0605 21.607 63.9926 22.893 63.9926C24.2325 63.9926 25.2774 62.954 25.2774 61.6225C25.2774 60.291 24.2325 59.2524 22.893 59.2524C21.607 59.2524 20.589 60.2111 20.5086 61.4627V59.4388Z" fill="#6966FF"/>
<path d="M26.6336 68.9724C26.6336 71.0229 28.3482 72.9137 31.1613 72.9137C33.117 72.9137 34.3761 72.0082 35.0459 70.9697C35.0459 71.4756 35.0995 72.1947 35.1798 72.5408H38.4483C38.3679 72.0881 38.2876 71.1561 38.2876 70.4637V64.0192C38.2876 61.3828 36.7337 59.0394 32.5544 59.0394C29.018 59.0394 27.1159 61.3029 26.9015 63.3534L30.0628 64.0192C30.17 62.8741 31.0273 61.8888 32.5812 61.8888C34.0814 61.8888 34.8048 62.6611 34.8048 63.5931C34.8048 64.0458 34.5637 64.4186 33.8135 64.5252L30.5719 65.0045C28.375 65.3241 26.6336 66.629 26.6336 68.9724ZM31.9114 70.2773C30.7594 70.2773 30.1968 69.5316 30.1968 68.7594C30.1968 67.7474 30.9201 67.2414 31.831 67.1083L34.8048 66.6556V67.2414C34.8048 69.5583 33.4117 70.2773 31.9114 70.2773Z" fill="#6966FF"/>
<path d="M45.3894 65.0045C45.3894 63.4866 46.3002 62.2882 47.8541 62.2882C49.5687 62.2882 50.2921 63.4333 50.2921 64.898V72.5408H53.8552V64.2855C53.8552 61.4094 52.3549 59.0926 49.0865 59.0926C47.6666 59.0926 46.0859 59.7051 45.2822 61.0632V59.4388H41.8262V72.5408H45.3894V65.0045Z" fill="#6966FF"/>
<path d="M62.0016 55.5242H58.7868V57.3617C58.7868 58.5334 58.1438 59.4388 56.7507 59.4388H56.0809V62.5812H58.4653V68.6795C58.4653 71.2093 60.0727 72.7273 62.6446 72.7273C63.6895 72.7273 64.3324 72.5408 64.6539 72.4077V69.4784C64.4664 69.5316 63.9841 69.5849 63.5555 69.5849C62.5375 69.5849 62.0016 69.2121 62.0016 68.067V62.5812H64.6539V59.4388H62.0016V55.5242Z" fill="#6966FF"/>
<path d="M66.6339 68.8925C66.7947 70.3838 68.161 72.9403 72.126 72.9403C75.582 72.9403 77.243 70.7566 77.243 68.6262C77.243 66.7088 75.9303 65.1377 73.3316 64.6051L71.4562 64.2056C70.7329 64.0725 70.2506 63.673 70.2506 63.0339C70.2506 62.2882 71.0008 61.729 71.9384 61.729C73.4387 61.729 74.0013 62.7143 74.1085 63.4866L77.0822 62.8208C76.9215 61.4094 75.6623 59.0394 71.9117 59.0394C69.0719 59.0394 66.9822 60.9834 66.9822 63.3268C66.9822 65.1643 68.1342 66.6822 70.6793 67.2414L72.4207 67.6409C73.4387 67.8539 73.8406 68.3333 73.8406 68.9191C73.8406 69.6115 73.278 70.224 72.0992 70.224C70.5453 70.224 69.7684 69.2653 69.688 68.2268L66.6339 68.8925Z" fill="#6966FF"/>
<path opacity="0.3" fill-rule="evenodd" clip-rule="evenodd" d="M104.375 5.48413C104.375 5.23967 104.175 5.0415 103.929 5.0415C103.683 5.0415 103.484 5.23967 103.484 5.48413V5.51214C103.484 5.75659 103.683 5.95476 103.929 5.95476C104.175 5.95476 104.375 5.75659 104.375 5.51214V5.48413ZM104.375 9.99453C104.375 9.75008 104.175 9.55191 103.929 9.55191C103.683 9.55191 103.484 9.75008 103.484 9.99453V10.0506C103.484 10.295 103.683 10.4932 103.929 10.4932C104.175 10.4932 104.375 10.295 104.375 10.0506V9.99453ZM104.375 14.533C104.375 14.2885 104.175 14.0903 103.929 14.0903C103.683 14.0903 103.484 14.2885 103.484 14.533V14.589C103.484 14.8334 103.683 15.0316 103.929 15.0316C104.175 15.0316 104.375 14.8334 104.375 14.589V14.533ZM104.375 19.0714C104.375 18.8269 104.175 18.6288 103.929 18.6288C103.683 18.6288 103.484 18.8269 103.484 19.0714V19.0994C103.484 19.3438 103.683 19.542 103.929 19.542C104.175 19.542 104.375 19.3438 104.375 19.0994V19.0714ZM104.375 41.4628C104.375 41.2184 104.175 41.0202 103.929 41.0202C103.683 41.0202 103.484 41.2184 103.484 41.4628V41.4927C103.484 41.7372 103.683 41.9354 103.929 41.9354C104.175 41.9354 104.375 41.7372 104.375 41.4927V41.4628ZM104.375 46.2761C104.375 46.0317 104.175 45.8335 103.929 45.8335C103.683 45.8335 103.484 46.0317 103.484 46.2761V46.3359C103.484 46.5804 103.683 46.7786 103.929 46.7786C104.175 46.7786 104.375 46.5804 104.375 46.3359V46.2761ZM104.375 51.1193C104.375 50.8749 104.175 50.6767 103.929 50.6767C103.683 50.6767 103.484 50.8749 103.484 51.1193V51.1791C103.484 51.4236 103.683 51.6218 103.929 51.6218C104.175 51.6218 104.375 51.4236 104.375 51.1791V51.1193ZM104.375 55.9625C104.375 55.7181 104.175 55.5199 103.929 55.5199C103.683 55.5199 103.484 55.7181 103.484 55.9625V56.0223C103.484 56.2668 103.683 56.465 103.929 56.465C104.175 56.465 104.375 56.2668 104.375 56.0223V55.9625ZM104.375 60.8057C104.375 60.5613 104.175 60.3631 103.929 60.3631C103.683 60.3631 103.484 60.5613 103.484 60.8057V60.8356C103.484 61.0801 103.683 61.2783 103.929 61.2783C104.175 61.2783 104.375 61.0801 104.375 60.8356V60.8057ZM134.481 30.9096C134.481 31.1541 134.281 31.3522 134.035 31.3522H134.009C133.763 31.3522 133.563 31.1541 133.563 30.9096C133.563 30.6652 133.763 30.467 134.009 30.467H134.035C134.281 30.467 134.481 30.6652 134.481 30.9096ZM130.143 30.9096C130.143 31.1541 129.944 31.3522 129.698 31.3522H129.644C129.398 31.3522 129.199 31.1541 129.199 30.9096C129.199 30.6652 129.398 30.467 129.644 30.467H129.698C129.944 30.467 130.143 30.6652 130.143 30.9096ZM125.779 30.9096C125.779 31.1541 125.579 31.3522 125.333 31.3522H125.28C125.034 31.3522 124.834 31.1541 124.834 30.9096C124.834 30.6652 125.034 30.467 125.28 30.467H125.333C125.579 30.467 125.779 30.6652 125.779 30.9096ZM121.414 30.9096C121.414 31.1541 121.215 31.3522 120.969 31.3522H120.915C120.669 31.3522 120.47 31.1541 120.47 30.9096C120.47 30.6652 120.669 30.467 120.915 30.467H120.969C121.215 30.467 121.414 30.6652 121.414 30.9096ZM117.05 30.9096C117.05 31.1541 116.85 31.3522 116.604 31.3522H116.55C116.305 31.3522 116.105 31.1541 116.105 30.9096C116.105 30.6652 116.305 30.467 116.55 30.467H116.604C116.85 30.467 117.05 30.6652 117.05 30.9096ZM112.685 30.9096C112.685 31.1541 112.486 31.3522 112.24 31.3522H112.213C111.967 31.3522 111.768 31.1541 111.768 30.9096C111.768 30.6652 111.967 30.467 112.213 30.467H112.24C112.486 30.467 112.685 30.6652 112.685 30.9096ZM95.8361 31.3522C96.082 31.3522 96.2814 31.1541 96.2814 30.9096C96.2814 30.6652 96.082 30.467 95.8361 30.467H95.8089C95.563 30.467 95.3636 30.6652 95.3636 30.9096C95.3636 31.1541 95.563 31.3522 95.8089 31.3522H95.8361ZM91.4606 31.3522C91.7065 31.3522 91.9059 31.1541 91.9059 30.9096C91.9059 30.6652 91.7065 30.467 91.4606 30.467H91.4062C91.1603 30.467 90.9609 30.6652 90.9609 30.9096C90.9609 31.1541 91.1603 31.3522 91.4062 31.3522H91.4606ZM87.0579 31.3522C87.3038 31.3522 87.5032 31.1541 87.5032 30.9096C87.5032 30.6652 87.3038 30.467 87.0579 30.467H87.0036C86.7576 30.467 86.5583 30.6652 86.5583 30.9096C86.5583 31.1541 86.7576 31.3522 87.0036 31.3522H87.0579ZM82.6552 31.3522C82.9012 31.3522 83.1005 31.1541 83.1005 30.9096C83.1005 30.6652 82.9012 30.467 82.6552 30.467H82.6009C82.355 30.467 82.1556 30.6652 82.1556 30.9096C82.1556 31.1541 82.355 31.3522 82.6009 31.3522H82.6552ZM78.2526 31.3522C78.4985 31.3522 78.6979 31.1541 78.6979 30.9096C78.6979 30.6652 78.4985 30.467 78.2526 30.467H78.1982C77.9523 30.467 77.7529 30.6652 77.7529 30.9096C77.7529 31.1541 77.9523 31.3522 78.1982 31.3522H78.2526Z" fill="#55555E"/>
<path fill-rule="evenodd" clip-rule="evenodd" d="M103.899 0.541016H103.959C104.205 0.541249 104.404 0.739606 104.404 0.98406C104.403 1.22851 104.204 1.42649 103.958 1.42626H103.9C103.654 1.42649 103.455 1.22851 103.454 0.984059C103.454 0.739606 103.653 0.541249 103.899 0.541016ZM99.6904 1.27481C99.7284 1.51633 99.5622 1.7427 99.3192 1.78042L99.2622 1.78932C99.0193 1.82751 98.7912 1.66273 98.7528 1.42127C98.7144 1.17982 98.8802 0.953131 99.1231 0.914944L99.1818 0.905777C99.4247 0.868061 99.6525 1.03328 99.6904 1.27481ZM108.167 1.27481C108.205 1.03328 108.433 0.868061 108.676 0.905777L108.735 0.914945C108.978 0.953131 109.143 1.17982 109.105 1.42128C109.067 1.66273 108.839 1.82751 108.596 1.78932L108.539 1.78042C108.296 1.7427 108.129 1.51633 108.167 1.27481ZM112.777 2.29443C112.852 2.06185 113.103 1.93433 113.337 2.0096L113.394 2.0278C113.627 2.10353 113.755 2.35334 113.679 2.58577C113.603 2.8182 113.352 2.94523 113.118 2.8695L113.063 2.85183C112.829 2.77656 112.701 2.527 112.777 2.29443ZM95.0814 2.29443C95.1571 2.527 95.0288 2.77656 94.7948 2.85183L94.7401 2.8695C94.5062 2.94523 94.2549 2.8182 94.1788 2.58577C94.1026 2.35334 94.2304 2.10353 94.4642 2.0278L94.5206 2.0096C94.7546 1.93433 95.0056 2.06185 95.0814 2.29443ZM117.166 4.02301C117.278 3.80518 117.546 3.71853 117.765 3.82948L117.818 3.85624C118.036 3.96761 118.123 4.2343 118.011 4.45191C117.899 4.66952 117.631 4.75565 117.412 4.64428L117.361 4.6183C117.141 4.50736 117.054 4.24084 117.166 4.02301ZM90.6919 4.02301C90.8035 4.24084 90.7164 4.50736 90.4972 4.6183L90.446 4.64428C90.2271 4.75565 89.9588 4.66952 89.8468 4.45191C89.7347 4.2343 89.8214 3.96761 90.0403 3.85624L90.093 3.82948C90.3122 3.71854 90.5803 3.80518 90.6919 4.02301ZM86.6302 6.41527C86.7747 6.61306 86.7306 6.88985 86.5316 7.03351L86.4851 7.06712C86.2864 7.21115 86.0079 7.1678 85.863 6.97029C85.7181 6.77278 85.7617 6.4959 85.9604 6.35187L86.0082 6.31725C86.2072 6.17359 86.4857 6.21748 86.6302 6.41527ZM121.228 6.41527C121.372 6.21748 121.651 6.17359 121.85 6.31725L121.897 6.35187C122.096 6.4959 122.14 6.77278 121.995 6.97029C121.85 7.1678 121.571 7.21115 121.373 7.06712L121.326 7.03351C121.127 6.88985 121.083 6.61306 121.228 6.41527ZM82.9937 9.40841C83.1675 9.58143 83.1672 9.86168 82.9931 10.0344L82.9525 10.0748C82.7788 10.2478 82.4968 10.2481 82.3228 10.0754C82.1487 9.90269 82.1484 9.62244 82.3222 9.44942L82.364 9.40781C82.5381 9.23512 82.82 9.23539 82.9937 9.40841ZM124.864 9.40841C125.038 9.23539 125.32 9.23512 125.494 9.40781L125.536 9.44942C125.709 9.62244 125.709 9.90269 125.535 10.0754C125.361 10.2481 125.079 10.2478 124.905 10.0748L124.865 10.0344C124.691 9.86168 124.69 9.58143 124.864 9.40841ZM79.87 12.9274C80.0687 13.0715 80.1123 13.3483 79.9674 13.5459L79.9336 13.592C79.789 13.7898 79.5106 13.8337 79.3116 13.6901C79.1126 13.5464 79.0685 13.2696 79.213 13.0718L79.2478 13.0243C79.3927 12.8267 79.6713 12.7834 79.87 12.9274ZM127.988 12.9274C128.187 12.7834 128.465 12.8267 128.61 13.0243L128.645 13.0718C128.789 13.2696 128.745 13.5464 128.546 13.6901C128.347 13.8337 128.069 13.7898 127.924 13.592L127.89 13.5459C127.746 13.3483 127.789 13.0715 127.988 12.9274ZM130.521 16.8874C130.74 16.776 131.009 16.8621 131.121 17.0797L131.148 17.1321C131.259 17.35 131.172 17.6165 130.953 17.7274C130.734 17.8384 130.466 17.7517 130.354 17.5339L130.328 17.483C130.216 17.2654 130.303 16.9987 130.521 16.8874ZM132.399 21.1934C132.633 21.1177 132.884 21.2447 132.96 21.4771L132.978 21.5332C133.054 21.7658 132.926 22.0153 132.692 22.0906C132.458 22.1659 132.207 22.0383 132.131 21.8058L132.113 21.7514C132.037 21.5189 132.165 21.2691 132.399 21.1934ZM133.57 25.7401C133.813 25.7019 134.041 25.8667 134.08 26.1081L134.089 26.1664C134.127 26.408 133.961 26.6343 133.718 26.6721C133.475 26.7098 133.247 26.5445 133.209 26.303L133.2 26.2464C133.162 26.0049 133.327 25.7782 133.57 25.7401ZM134.01 30.4134C134.256 30.4132 134.456 30.6111 134.456 30.8556V30.9148C134.456 31.1592 134.256 31.3572 134.01 31.357C133.764 31.3567 133.565 31.1584 133.565 30.9139V30.8564C133.565 30.612 133.764 30.4136 134.01 30.4134ZM133.718 35.0983C133.961 35.136 134.127 35.3624 134.089 35.6039L134.08 35.6622C134.041 35.9037 133.813 36.0685 133.57 36.0303C133.327 35.9921 133.162 35.7654 133.2 35.524L133.209 35.4673C133.247 35.2258 133.475 35.0606 133.718 35.0983ZM132.692 39.6798C132.926 39.755 133.054 40.0046 132.978 40.2372L132.96 40.2932C132.884 40.5256 132.633 40.6527 132.399 40.577C132.165 40.5012 132.037 40.2514 132.113 40.019L132.131 39.9646C132.207 39.732 132.458 39.6045 132.692 39.6798ZM76.9049 44.0429C77.1241 43.932 77.3922 44.0186 77.5038 44.2364L77.5299 44.2873C77.642 44.5049 77.5553 44.7716 77.3364 44.883C77.1175 44.9944 76.8492 44.9082 76.7371 44.6906L76.7102 44.6382C76.5986 44.4204 76.6858 44.1538 76.9049 44.0429ZM130.953 44.0429C131.172 44.1538 131.259 44.4204 131.148 44.6382L131.121 44.6906C131.009 44.9082 130.74 44.9944 130.521 44.883C130.303 44.7716 130.216 44.5049 130.328 44.2873L130.354 44.2364C130.466 44.0186 130.734 43.932 130.953 44.0429ZM79.3116 48.0803C79.5106 47.9366 79.789 47.9805 79.9335 48.1783L79.9674 48.2245C80.1123 48.422 80.0687 48.6989 79.87 48.8429C79.6713 48.9869 79.3927 48.9436 79.2478 48.7461L79.213 48.6985C79.0685 48.5007 79.1126 48.2239 79.3116 48.0803ZM128.546 48.0803C128.745 48.2239 128.789 48.5007 128.645 48.6985L128.61 48.7461C128.465 48.9436 128.187 48.9869 127.988 48.8429C127.789 48.6989 127.746 48.422 127.89 48.2245L127.924 48.1783C128.069 47.9805 128.347 47.9366 128.546 48.0803ZM82.3228 51.695C82.4968 51.5223 82.7788 51.5225 82.9525 51.6956L82.9931 51.736C83.1672 51.9087 83.1675 52.1889 82.9937 52.3619C82.82 52.535 82.5381 52.5352 82.364 52.3625L82.3222 52.3209C82.1484 52.1479 82.1487 51.8677 82.3228 51.695ZM125.535 51.695C125.709 51.8677 125.709 52.1479 125.536 52.3209L125.494 52.3625C125.32 52.5352 125.038 52.535 124.864 52.3619C124.69 52.1889 124.691 51.9087 124.865 51.736L124.905 51.6956C125.079 51.5225 125.361 51.5223 125.535 51.695ZM85.863 54.8C86.0079 54.6025 86.2864 54.5592 86.4851 54.7032L86.5316 54.7368C86.7306 54.8805 86.7747 55.1573 86.6302 55.3551C86.4857 55.5529 86.2072 55.5967 86.0082 55.4531L85.9604 55.4185C85.7617 55.2744 85.7181 54.9976 85.863 54.8ZM121.995 54.8C122.14 54.9976 122.096 55.2744 121.897 55.4185L121.85 55.4531C121.651 55.5967 121.372 55.5529 121.228 55.3551C121.083 55.1573 121.127 54.8805 121.326 54.7368L121.373 54.7032C121.571 54.5592 121.85 54.6025 121.995 54.8ZM89.8468 57.3184C89.9588 57.1008 90.2271 57.0147 90.446 57.1261L90.4972 57.152C90.7164 57.263 90.8035 57.5295 90.6919 57.7473C90.5803 57.9652 90.3122 58.0518 90.093 57.9409L90.0403 57.9141C89.8214 57.8027 89.7347 57.536 89.8468 57.3184ZM118.011 57.3184C118.123 57.536 118.036 57.8027 117.818 57.9141L117.765 57.9409C117.546 58.0518 117.278 57.9652 117.166 57.7473C117.054 57.5295 117.141 57.263 117.361 57.152L117.412 57.1261C117.631 57.0147 117.899 57.1008 118.011 57.3184ZM94.1788 59.1846C94.2549 58.9521 94.5062 58.8251 94.7401 58.9008L94.7948 58.9185C95.0288 58.9938 95.1571 59.2433 95.0814 59.4759C95.0056 59.7085 94.7546 59.836 94.5206 59.7607L94.4642 59.7425C94.2304 59.6668 94.1026 59.417 94.1788 59.1846ZM113.679 59.1846C113.755 59.417 113.627 59.6668 113.394 59.7425L113.337 59.7607C113.103 59.836 112.852 59.7085 112.777 59.4759C112.701 59.2433 112.829 58.9938 113.063 58.9185L113.118 58.9008C113.352 58.8251 113.603 58.9521 113.679 59.1846ZM98.7528 60.3491C98.7912 60.1076 99.0193 59.9428 99.2622 59.981L99.3192 59.9899C99.5622 60.0276 99.7284 60.254 99.6904 60.4955C99.6525 60.7371 99.4247 60.9023 99.1818 60.8646L99.1231 60.8554C98.8802 60.8172 98.7144 60.5905 98.7528 60.3491ZM109.105 60.3491C109.143 60.5905 108.978 60.8172 108.735 60.8554L108.676 60.8646C108.433 60.9023 108.205 60.7371 108.167 60.4955C108.129 60.254 108.296 60.0276 108.539 59.9899L108.596 59.981C108.839 59.9428 109.067 60.1076 109.105 60.3491ZM103.454 60.7863C103.455 60.5418 103.654 60.3439 103.9 60.3441H103.958C104.204 60.3439 104.403 60.5418 104.404 60.7863C104.404 61.0307 104.205 61.2291 103.959 61.2293H103.899C103.653 61.2291 103.454 61.0307 103.454 60.7863Z" fill="#1A1A27"/>
<path d="M104.918 0.983559C104.918 1.52679 104.475 1.96716 103.929 1.96716C103.382 1.96716 102.939 1.52679 102.939 0.983559C102.939 0.44033 103.382 -4.45985e-05 103.929 -4.45511e-05C104.475 -4.45036e-05 104.918 0.44033 104.918 0.983559Z" fill="#6966FF"/>
<path d="M104.918 60.7867C104.918 61.3299 104.475 61.7703 103.929 61.7703C103.382 61.7703 102.939 61.3299 102.939 60.7867C102.939 60.2434 103.382 59.8031 103.929 59.8031C104.475 59.8031 104.918 60.2434 104.918 60.7867Z" fill="#6966FF"/>
<path d="M134.011 31.8688C133.464 31.8688 133.021 31.4284 133.021 30.8852C133.021 30.3419 133.464 29.9016 134.011 29.9016C134.557 29.9016 135 30.3419 135 30.8852C135 31.4284 134.557 31.8688 134.011 31.8688Z" fill="#6966FF"/>
<path fill-rule="evenodd" clip-rule="evenodd" d="M112.572 12.4478H120.779L94.3569 49.2316H86.2866L112.572 12.4478ZM102.932 23.2867L95.1976 12.4478H86.9592L98.8965 29.1989L102.932 23.2867ZM100.908 23.3077L98.867 26.2988L90.174 14.1002H94.3386L100.908 23.3077ZM89.5066 47.5792H93.5012L117.549 14.1002H113.431L89.5066 47.5792Z" fill="#1A1A27"/>
<path fill-rule="evenodd" clip-rule="evenodd" d="M114.226 47.4635C114.32 47.5933 114.47 47.6701 114.631 47.6701H118.366L109.411 35.0301C109.212 34.7484 108.793 34.7489 108.595 35.0313L107.136 37.103C107.013 37.2777 107.014 37.5113 107.14 37.6843L114.226 47.4635ZM104.891 37.4087L113.524 49.3226H121.57L108.998 31.5768L104.891 37.4087Z" fill="#6966FF"/>
<path fill-rule="evenodd" clip-rule="evenodd" d="M28.217 12.4478H21.1634V23.3929C19.1262 22.3096 16.7874 21.6936 14.3003 21.6936C6.4038 21.6936 0.00244141 27.9029 0.00244141 35.5624C0.00244141 43.222 6.4038 49.4313 14.3003 49.4313C16.7874 49.4313 19.1262 48.8153 21.1634 47.732V49.101H28.217V12.4478ZM22.3229 35.4894C22.3229 39.8275 18.6973 43.3443 14.225 43.3443C9.75262 43.3443 6.12708 39.8275 6.12708 35.4894C6.12708 31.1512 9.75262 27.6345 14.225 27.6345C18.6973 27.6345 22.3229 31.1512 22.3229 35.4894ZM56.7975 12.4478L30.5683 49.1011H38.7912L64.995 12.4478H56.7975ZM77.2567 12.4478H84.3104V49.101H77.2567V47.732C75.2196 48.8153 72.8807 49.4313 70.3936 49.4313C62.4971 49.4313 56.0958 43.222 56.0958 35.5624C56.0958 27.9029 62.4971 21.6936 70.3936 21.6936C72.8807 21.6936 75.2196 22.3096 77.2567 23.3929V12.4478ZM70.3183 43.3443C74.7907 43.3443 78.4162 39.8275 78.4162 35.4894C78.4162 31.1512 74.7907 27.6345 70.3183 27.6345C65.846 27.6345 62.2204 31.1512 62.2204 35.4894C62.2204 39.8275 65.846 43.3443 70.3183 43.3443ZM47.0269 23.5755L38.7976 12.4478H30.2325L42.4924 29.794L47.0269 23.5755Z" fill="#1A1A27"/>
</svg>
